{
  "asset": {
    "generator": "Khronos glTF Blender I/O v4.2.70",
    "version": "2.0"
  },
  "scene": 0,
  "scenes": [
    {
      "name": "Scene",
      "nodes": [
        0
      ]
    }
  ],
  "nodes": [
    {
      "mesh": 0,
      "name": "sphere_gltf"
    }
  ],
  "materials": [
    {
      "doubleSided": true,
      "name": "volcanic_herringbone_01",
      "normalTexture": {
        "index": 0
      },
      "pbrMetallicRoughness": {
        "baseColorTexture": {
          "index": 1
        },
        "metallicFactor": 0,
        "metallicRoughnessTexture": {
          "index": 2
        }
      }
    }
  ],
  "meshes": [
    {
      "name": "Sphere.001",
      "primitives": [
        {
          "attributes": {
            "POSITION": 0,
            "NORMAL": 1,
            "TEXCOORD_0": 2
          },
          "indices": 3,
          "material": 0
        }
      ]
    }
  ],
  "textures": [
    {
      "sampler": 0,
      "source": 0
    },
    {
      "sampler": 0,
      "source": 1
    },
    {
      "sampler": 0,
      "source": 2
    }
  ],
  "images": [
    {
      "mimeType": "image/jpeg",
      "name": "volcanic_herringbone_01_nor_gl",
      "uri": "textures/volcanic_herringbone_01_nor_gl_1k.jpg"
    },
    {
      "mimeType": "image/jpeg",
      "name": "volcanic_herringbone_01_diff",
      "uri": "textures/volcanic_herringbone_01_diff_1k.jpg"
    },
    {
      "mimeType": "image/jpeg",
      "name": "volcanic_herringbone_01_rough",
      "uri": "textures/volcanic_herringbone_01_arm_1k.jpg"
    }
  ],
  "accessors": [
    {
      "bufferView": 0,
      "componentType": 5126,
      "count": 53920,
      "max": [
        0.9062538146972656,
        0.9078384041786194,
        0.9084894061088562
      ],
      "min": [
        -0.9062538146972656,
        -0.9075153470039368,
        -0.9084942936897278
      ],
      "type": "VEC3"
    },
    {
      "bufferView": 1,
      "componentType": 5126,
      "count": 53920,
      "type": "VEC3"
    },
    {
      "bufferView": 2,
      "componentType": 5126,
      "count": 53920,
      "type": "VEC2"
    },
    {
      "bufferView": 3,
      "componentType": 5123,
      "count": 322170,
      "type": "SCALAR"
    }
  ],
  "bufferViews": [
    {
      "buffer": 0,
      "byteLength": 647040,
      "byteOffset": 0,
      "target": 34962
    },
    {
      "buffer": 0,
      "byteLength": 647040,
      "byteOffset": 647040,
      "target": 34962
    },
    {
      "buffer": 0,
      "byteLength": 431360,
      "byteOffset": 1294080,
      "target": 34962
    },
    {
      "buffer": 0,
      "byteLength": 644340,
      "byteOffset": 1725440,
      "target": 34963
    }
  ],
  "samplers": [
    {
      "magFilter": 9729,
      "minFilter": 9987
    }
  ],
  "buffers": [
    {
      "byteLength": 2369780,
      "uri": "volcanic_herringbone_01.bin"
    }
  ]
}